<svg width="1407" height="587" xmlns="http://www.w3.org/2000/svg" xmlns:xlink="http://www.w3.org/1999/xlink" xml:space="preserve" overflow="hidden"><g transform="translate(-5060 -1127)"><g><path d="M6463 1253 6463 1595 6360 1595 6360 1350.61Z" fill="#331B0D" fill-rule="evenodd" fill-opacity="1"/><rect x="5846" y="1492" width="565" height="103" fill="#331B0D" fill-opacity="1"/><rect x="6360" y="1611" width="103" height="103" fill="#331B0D" fill-opacity="1"/><path d="M5977.01 1248.64 6120.9 1524.47 6029.78 1572 5899.5 1322.26Z" fill="#331B0D" fill-rule="evenodd" fill-opacity="1"/><path d="M5812.2 1252 5813 1252 5813 1595 5710 1595 5710 1346.75 5710.15 1348.69Z" fill="#331B0D" fill-rule="evenodd" fill-opacity="1"/><path d="M5674.68 1252 5677 1252 5677 1595 5574 1595 5574 1347.39Z" fill="#331B0D" fill-rule="evenodd" fill-opacity="1"/><rect x="5060" y="1492" width="565" height="103" fill="#331B0D" fill-opacity="1"/><rect x="5266" y="1252" width="102" height="312" fill="#331B0D" fill-opacity="1"/><path d="M5163 1258 5163 1595 5060 1595 5060 1348.25Z" fill="#331B0D" fill-rule="evenodd" fill-opacity="1"/><path d="M5169.11 1252 5368 1252 5368 1354 5060 1354 5060 1347.07Z" fill="#331B0D" fill-rule="evenodd" fill-opacity="1"/><rect x="5060" y="1132" width="308" height="103" fill="#331B0D" fill-opacity="1"/><rect x="5430" y="1611" width="247" height="103" fill="#331B0D" fill-opacity="1"/><rect x="5060" y="1611" width="340" height="103" fill="#331B0D" fill-opacity="1"/><rect x="5710" y="1611" width="626" height="103" fill="#331B0D" fill-opacity="1"/><rect x="5400" y="1131" width="1063" height="103" fill="#331B0D" fill-opacity="1"/></g></g></svg>